<svg xmlns="http://www.w3.org/2000/svg" xmlns:xlink="http://www.w3.org/1999/xlink" width="500" zoomAndPan="magnify" viewBox="0 0 375 374.999991" height="500" preserveAspectRatio="xMidYMid meet" version="1.0"><defs><g/><clipPath id="id1"><path d="M 72 163 L 186 163 L 186 247 L 72 247 Z M 72 163 " clip-rule="nonzero"/></clipPath><clipPath id="id2"><path d="M 73.925781 160.28125 L 187.085938 164.792969 L 183.765625 247.980469 L 70.609375 243.464844 Z M 73.925781 160.28125 " clip-rule="nonzero"/></clipPath><clipPath id="id3"><path d="M 73.925781 160.28125 L 187.085938 164.792969 L 183.765625 247.980469 L 70.609375 243.464844 Z M 73.925781 160.28125 " clip-rule="nonzero"/></clipPath><clipPath id="id4"><path d="M 73.925781 160.28125 L 187.085938 164.792969 L 183.765625 247.980469 L 70.609375 243.464844 Z M 73.925781 160.28125 " clip-rule="nonzero"/></clipPath><clipPath id="id5"><path d="M 73.949219 160.28125 L 187.132812 164.796875 L 183.8125 248.007812 L 70.628906 243.492188 Z M 73.949219 160.28125 " clip-rule="nonzero"/></clipPath><clipPath id="id6"><path d="M 73.949219 160.28125 L 187.066406 164.792969 L 183.75 247.984375 L 70.628906 243.46875 Z M 73.949219 160.28125 " clip-rule="nonzero"/></clipPath><clipPath id="id7"><path d="M 76 190 L 100 190 L 100 208 L 76 208 Z M 76 190 " clip-rule="nonzero"/></clipPath><clipPath id="id8"><path d="M 73.925781 160.28125 L 187.085938 164.792969 L 183.765625 247.980469 L 70.609375 243.464844 Z M 73.925781 160.28125 " clip-rule="nonzero"/></clipPath><clipPath id="id9"><path d="M 73.925781 160.28125 L 187.085938 164.792969 L 183.765625 247.980469 L 70.609375 243.464844 Z M 73.925781 160.28125 " clip-rule="nonzero"/></clipPath><clipPath id="id10"><path d="M 73.925781 160.28125 L 187.085938 164.792969 L 183.765625 247.980469 L 70.609375 243.464844 Z M 73.925781 160.28125 " clip-rule="nonzero"/></clipPath></defs><g fill="#f52e18" fill-opacity="1"><g transform="translate(40.701733, 199.822778)"><g><path d="M 4.652344 -1.082031 C 9.898438 -2.296875 9.917969 -6.582031 9.042969 -10.351562 L 8.269531 -13.675781 C 6.746094 -20.25 9.015625 -27.242188 13.300781 -28.234375 C 15 -28.628906 16.3125 -28 16.777344 -26.003906 C 17.652344 -22.238281 15.121094 -16.355469 16.425781 -10.742188 C 17.558594 -5.867188 20.429688 -4.898438 23.828125 -5.6875 C 29.367188 -6.972656 29.460938 -11.277344 28.738281 -14.378906 C 28.242188 -16.519531 27.554688 -17.140625 27.054688 -19.28125 C 25.769531 -24.824219 28.042969 -31.8125 32.324219 -32.808594 C 34.023438 -33.203125 35.339844 -32.570312 35.734375 -30.871094 C 36.4375 -27.84375 34.484375 -22.175781 35.785156 -16.558594 C 36.761719 -12.347656 39.230469 -9.105469 43.957031 -10.203125 C 53.929688 -12.519531 55.628906 -28.015625 57.046875 -32.628906 C 57.535156 -34.21875 54.066406 -35.75 53.296875 -33.703125 C 52.332031 -31.144531 51.289062 -29.265625 49.070312 -28.753906 C 46.558594 -28.167969 45.160156 -29.167969 44.558594 -31.753906 C 43.703125 -35.449219 45.519531 -38.359375 44.609375 -42.277344 C 43.753906 -45.96875 40.890625 -48.574219 35.128906 -47.238281 C 31.582031 -46.414062 28.796875 -43.976562 26.710938 -40.222656 C 25.894531 -38.710938 25.308594 -38.886719 24.863281 -39.796875 C 23.507812 -42.28125 20.976562 -43.796875 17.355469 -42.957031 C 14.105469 -42.203125 11.511719 -39.964844 9.394531 -36.671875 C 7.578125 -33.757812 5.664062 -34.636719 5.082031 -37.148438 C 4.738281 -38.625 3.835938 -39.820312 2.136719 -39.425781 C -0.816406 -38.738281 -2.078125 -30.425781 -3 -20.636719 C -3.660156 -14.097656 -2.796875 -8.695312 -1.992188 -5.222656 C -1.269531 -2.117188 1.183594 -0.273438 4.652344 -1.082031 Z M 4.652344 -1.082031 "/></g></g></g><g fill="#f52e18" fill-opacity="1"><g transform="translate(96.164398, 188.714526)"><g><path d="M 8.738281 1.546875 C 13.292969 2.351562 18.484375 -1.734375 22.617188 -7.242188 L 22.914062 -7.191406 C 20.996094 -1.136719 22.628906 4.003906 27.40625 4.851562 C 35.699219 6.316406 41.867188 -4.605469 46.753906 -10.902344 C 47.753906 -12.191406 45.164062 -14.960938 43.726562 -13.363281 C 41.808594 -11.238281 39.691406 -10.152344 37.152344 -10.601562 C 33.863281 -11.183594 33.570312 -14.316406 37.078125 -19.316406 L 49.335938 -39.40625 C 52.03125 -43.320312 51.472656 -46.269531 48.859375 -46.730469 C 46.617188 -47.125 43.632812 -46.347656 39.578125 -39.976562 C 35.003906 -32.855469 34.277344 -28.746094 33.082031 -28.957031 C 31.140625 -29.300781 32.074219 -32.832031 26.101562 -33.890625 C 13.253906 -36.164062 4.058594 -21.617188 2.101562 -10.566406 C 1.042969 -4.589844 2.835938 0.503906 8.738281 1.546875 Z M 18.269531 -12.710938 C 15.429688 -13.210938 14.714844 -15.265625 15.101562 -17.429688 C 15.679688 -20.714844 18.792969 -23.9375 22.453125 -23.292969 C 25.363281 -22.777344 26.242188 -20.773438 25.859375 -18.605469 C 25.304688 -15.46875 22.003906 -12.050781 18.269531 -12.710938 Z M 18.269531 -12.710938 "/></g></g></g><g fill="#f52e18" fill-opacity="1"><g transform="translate(176.075637, 189.848682)"><g><path d="M 45.332031 -25.257812 C 42.75 -20.4375 36.433594 -17.996094 31.300781 -17.5 C 26.847656 -17.070312 23.222656 -18.320312 19.71875 -19.886719 C 20.441406 -21.863281 21.148438 -23.988281 21.84375 -26.265625 L 22.675781 -26.34375 C 40.035156 -28.023438 47.328125 -40.082031 46.324219 -50.496094 C 45.644531 -57.519531 41 -60.652344 34.203125 -59.992188 C 24.996094 -59.105469 20.234375 -50.796875 15.398438 -34.632812 C 13.121094 -36.089844 11.523438 -38.449219 11.222656 -41.542969 C 10.792969 -45.996094 13.488281 -48.847656 17.113281 -49.199219 C 17.867188 -49.273438 18.261719 -49.917969 18.125 -51.355469 C 17.765625 -55.054688 14.191406 -57.375 9.207031 -56.894531 C 1.207031 -56.121094 -3.546875 -50.097656 -2.738281 -41.71875 C -1.964844 -33.714844 3.972656 -28.269531 12.96875 -26.625 C 12.542969 -25.519531 12.117188 -24.410156 11.675781 -23.453125 C 8.84375 -24.398438 5.734375 -25.011719 2.113281 -24.664062 C -7.476562 -23.734375 -11.671875 -16.703125 -11.066406 -10.4375 C -10.453125 -4.09375 -5.800781 1.476562 2.425781 0.679688 C 8.691406 0.0742188 12.789062 -4.054688 16.085938 -10.925781 C 20.238281 -6.605469 25.289062 -2.445312 32.460938 -3.136719 C 38.273438 -3.699219 42.332031 -7.445312 48.914062 -23.699219 C 49.527344 -25.207031 46.367188 -27.1875 45.332031 -25.257812 Z M 31.84375 -46.585938 C 33.578125 -46.753906 34.390625 -45.457031 34.535156 -43.949219 C 34.90625 -40.097656 31.296875 -34.113281 24.007812 -33.027344 C 24.054688 -33.335938 24.109375 -33.570312 24.230469 -33.886719 C 27.785156 -45.203125 30.410156 -46.445312 31.84375 -46.585938 Z M 5.101562 -15.808594 C 3.515625 -15.65625 2.589844 -16.554688 2.480469 -17.6875 C 2.371094 -18.820312 3.183594 -19.890625 4.917969 -20.058594 C 6.277344 -20.1875 7.632812 -19.558594 8.957031 -18.464844 C 7.746094 -16.824219 6.460938 -15.9375 5.101562 -15.808594 Z M 5.101562 -15.808594 "/></g></g></g><g fill="#f52e18" fill-opacity="1"><g transform="translate(217.058023, 187.200907)"><g><path d="M 21.800781 -37.957031 C 25.6875 -37.304688 29.003906 -38.289062 30.230469 -42.851562 C 31.378906 -47.425781 28.550781 -49.359375 24.734375 -50 C 20.621094 -50.6875 16.992188 -49.679688 16.105469 -44.367188 C 15.441406 -40.402344 18.207031 -38.554688 21.800781 -37.957031 Z M 6.730469 1.125 C 16.382812 2.738281 23.621094 -11.125 26.6875 -14.761719 C 27.660156 -15.984375 25.121094 -18.714844 23.621094 -17.121094 C 21.75 -15.125 20.078125 -13.867188 17.835938 -14.242188 C 15.816406 -14.582031 14.683594 -16.078125 15.09375 -18.546875 C 15.769531 -22.585938 19.960938 -26.960938 20.722656 -31.523438 C 21.125 -33.917969 20.3125 -35.050781 18.742188 -35.3125 C 14.480469 -36.027344 10.398438 -30.480469 5.144531 -20.207031 C 3.421875 -16.804688 2 -12.890625 1.414062 -9.375 C 0.539062 -4.140625 1.71875 0.289062 6.730469 1.125 Z M 6.730469 1.125 "/></g></g></g><g fill="#f52e18" fill-opacity="1"><g transform="translate(220.033739, 204.975952)"><g><path d="M 4.628906 1.179688 C 9.703125 2.46875 11.6875 -1.332031 12.640625 -5.078125 L 13.480469 -8.386719 C 15.144531 -14.925781 20.375 -20.09375 24.636719 -19.007812 C 26.328125 -18.578125 27.207031 -17.414062 26.773438 -15.722656 C 26.007812 -12.710938 21.667969 -8.570312 20.246094 -2.984375 C 19.199219 1.128906 19.917969 5.070312 24.546875 6.246094 C 34.46875 8.773438 43.097656 -4.214844 46.476562 -7.65625 C 47.640625 -8.847656 45.261719 -11.800781 43.636719 -10.335938 C 41.605469 -8.507812 39.816406 -7.316406 37.613281 -7.878906 C 35.1875 -8.496094 34.382812 -9.953125 35.019531 -12.453125 C 35.957031 -16.125 38.90625 -17.878906 39.898438 -21.777344 C 40.832031 -25.449219 39.488281 -29.078125 35.003906 -30.222656 C 31.769531 -31.042969 28.4375 -30.25 25.042969 -28.292969 C 22.09375 -26.542969 20.847656 -27.796875 21.578125 -30.664062 C 21.953125 -32.132812 21.847656 -33.570312 19.863281 -34.074219 C 17.144531 -34.765625 11.429688 -27.691406 6.816406 -19.707031 C 3.589844 -14.113281 1.507812 -9.007812 0.628906 -5.550781 C -0.15625 -2.464844 1.175781 0.300781 4.628906 1.179688 Z M 4.628906 1.179688 "/></g></g></g><g fill="#f52e18" fill-opacity="1"><g transform="translate(263.348768, 215.055126)"><g><path d="M 5.152344 -0.253906 C 10.148438 -0.503906 10.929688 -4.71875 10.738281 -8.582031 L 10.449219 -14.339844 C 10.222656 -18.960938 14.367188 -19.542969 15.089844 -15.707031 C 17.046875 -5.328125 19.316406 -0.957031 24.542969 -1.21875 C 35.222656 -1.746094 39.949219 -16.636719 42.164062 -21 C 42.925781 -22.480469 40.273438 -25.460938 38.660156 -22.726562 C 36.914062 -19.675781 33.171875 -18.578125 28.777344 -18.363281 C 24.613281 -18.15625 21.890625 -19.460938 21.765625 -21.960938 C 21.675781 -23.78125 22.660156 -25.347656 25.234375 -25.550781 C 31.445312 -25.859375 34.496094 -28.59375 34.242188 -33.742188 C 34.09375 -36.773438 31.828125 -39.546875 27.285156 -39.320312 C 21.828125 -39.050781 18.554688 -34.636719 15.800781 -27.4375 C 14.992188 -25.347656 11.28125 -25.164062 11.609375 -27.683594 C 12.6875 -35.027344 16.132812 -42.109375 18.558594 -48.378906 C 20.511719 -53.335938 19.492188 -55.5625 16.386719 -55.410156 C 10.25 -55.105469 7.339844 -43.34375 0.789062 -20.84375 C -0.511719 -16.453125 -1.335938 -11.628906 -1.144531 -7.765625 C -0.921875 -3.296875 0.757812 -0.0390625 5.152344 -0.253906 Z M 5.152344 -0.253906 "/></g></g></g><g fill="#f52e18" fill-opacity="1"><g transform="translate(308.045354, 212.786026)"><g><path d="M 24.367188 -28.457031 C 23.523438 -25.855469 22.441406 -23.816406 20.273438 -23.125 C 18.050781 -27.386719 12.535156 -32.132812 12.144531 -33.519531 C 11.320312 -36.441406 16.589844 -38.160156 15.855469 -40.476562 C 15.273438 -42.832031 12.339844 -44.84375 7.816406 -43.570312 C 1.539062 -41.800781 -0.582031 -29.464844 -3.789062 -20.996094 L -3.957031 -20.476562 C -6.28125 -11.941406 -1.1875 0.257812 11.660156 -3.363281 C 25.238281 -7.191406 27.316406 -22.746094 28.164062 -27.554688 C 28.429688 -29.128906 25.039062 -30.535156 24.367188 -28.457031 Z M 4.792969 -17.660156 C 2.386719 -16.984375 0.335938 -17.824219 -0.15625 -19.574219 C 0.925781 -22.164062 2.34375 -25.796875 3.40625 -29.011719 C 3.796875 -30.144531 4.382812 -30.308594 5.160156 -29.503906 C 6.738281 -27.820312 7.835938 -26.160156 8.328125 -24.410156 C 9.171875 -21.417969 8.003906 -18.566406 4.792969 -17.660156 Z M 4.792969 -17.660156 "/></g></g></g><g clip-path="url(#id1)"><g clip-path="url(#id2)"><g clip-path="url(#id3)"><g clip-path="url(#id4)"><g clip-path="url(#id5)"><g clip-path="url(#id6)"><path fill="#6064b8" d="M 92.625 212.199219 C 90.71875 214.273438 88.695312 216.519531 86.800781 218.871094 C 86.683594 219.015625 86.511719 219.089844 86.339844 219.082031 C 86.222656 219.078125 86.105469 219.039062 86.007812 218.960938 C 85.765625 218.765625 85.726562 218.414062 85.921875 218.175781 C 87.835938 215.796875 89.875 213.535156 91.792969 211.445312 C 92.003906 211.214844 92.359375 211.199219 92.589844 211.410156 C 92.816406 211.617188 92.835938 211.96875 92.625 212.199219 Z M 95.394531 211.289062 C 95.480469 211.441406 95.511719 211.691406 95.339844 211.90625 C 95.277344 212.046875 95.214844 212.1875 95.152344 212.335938 C 95.113281 212.421875 95.078125 212.503906 95.042969 212.589844 C 94.765625 213.21875 94.476562 213.851562 94.203125 214.449219 C 93.257812 216.527344 92.539062 218.140625 91.878906 219.675781 C 91.785156 219.898438 91.566406 220.027344 91.339844 220.015625 C 91.273438 220.015625 91.203125 220 91.140625 219.972656 C 90.855469 219.851562 90.722656 219.523438 90.84375 219.238281 C 91.507812 217.695312 92.226562 216.074219 93.179688 213.988281 C 93.449219 213.394531 93.738281 212.761719 94.011719 212.136719 C 94.046875 212.058594 94.082031 211.976562 94.117188 211.894531 C 94.191406 211.722656 94.269531 211.542969 94.355469 211.363281 C 94.378906 211.3125 94.40625 211.273438 94.433594 211.246094 C 94.507812 211.128906 94.632812 211.042969 94.78125 211.011719 C 95.023438 210.957031 95.277344 211.070312 95.394531 211.289062 Z M 101.539062 206.03125 C 101.558594 205.839844 101.570312 205.648438 101.574219 205.464844 C 101.71875 205.484375 101.878906 205.5 102.050781 205.511719 C 101.898438 205.667969 101.726562 205.839844 101.539062 206.03125 Z M 103.894531 204.457031 C 103.71875 204.449219 103.492188 204.441406 103.230469 204.4375 C 102.6875 204.421875 101.949219 204.402344 101.597656 204.339844 C 101.527344 204.328125 101.398438 204.296875 101.316406 204.277344 C 101.0625 204.101562 100.710938 204.164062 100.535156 204.414062 C 100.433594 204.558594 100.40625 204.746094 100.457031 204.910156 C 100.480469 205.847656 100.304688 207.367188 99.96875 208.238281 C 99.859375 208.527344 100.007812 208.851562 100.296875 208.960938 C 100.355469 208.984375 100.414062 208.996094 100.472656 208.996094 C 100.710938 209.007812 100.933594 208.867188 101.023438 208.636719 C 101.109375 208.410156 101.183594 208.152344 101.25 207.878906 C 101.371094 207.804688 101.484375 207.691406 101.613281 207.5625 C 101.753906 207.417969 101.949219 207.21875 102.164062 207 C 102.597656 206.554688 103.402344 205.726562 103.578125 205.605469 C 103.59375 205.59375 103.613281 205.578125 103.628906 205.566406 C 103.703125 205.570312 103.773438 205.570312 103.835938 205.574219 C 104.144531 205.585938 104.410156 205.355469 104.425781 205.046875 C 104.445312 204.738281 104.207031 204.472656 103.894531 204.457031 Z M 100.304688 200.472656 C 100.183594 200.105469 101.527344 198.898438 102.261719 199.363281 C 103 199.828125 100.546875 201.203125 100.304688 200.472656 Z M 94.046875 205.136719 C 93.5 204.566406 95.171875 202.890625 95.960938 203.316406 C 96.617188 203.671875 94.640625 205.75 94.046875 205.136719 Z M 176.003906 204.914062 C 176.617188 206.570312 176.132812 208.027344 175.488281 209.082031 C 173.648438 212.070312 169.269531 214.039062 165.542969 213.789062 C 165.753906 213.148438 166.203125 212.117188 166.558594 211.804688 C 167.066406 211.359375 168 210.898438 169.078125 210.367188 C 171.394531 209.222656 174.523438 207.679688 176.003906 204.914062 Z M 166.832031 221.570312 C 166.796875 221.570312 166.765625 221.574219 166.730469 221.582031 C 165.023438 221.390625 163.621094 220.949219 162.902344 219.980469 C 162.71875 219.734375 162.367188 219.679688 162.117188 219.863281 C 161.867188 220.046875 161.8125 220.398438 161.996094 220.644531 C 163.683594 222.921875 167.5625 222.875 171.667969 222.828125 C 175.300781 222.785156 179.0625 222.738281 180.738281 224.460938 C 181.214844 224.953125 181.394531 225.875 181.269531 227.199219 C 180.800781 232.144531 175.257812 233.953125 170.367188 235.546875 C 168.914062 236.019531 167.542969 236.46875 166.382812 236.972656 C 164.863281 237.640625 163.332031 238.382812 161.851562 239.101562 C 158.382812 240.78125 154.792969 242.523438 151.046875 243.40625 C 141.609375 245.628906 131.085938 245.460938 120.617188 242.921875 C 117.132812 242.074219 113.726562 240.992188 110.566406 239.949219 C 110.226562 239.835938 109.839844 239.707031 109.429688 239.5625 C 113.054688 239.335938 116.695312 237.976562 120.296875 235.503906 C 125.726562 231.777344 129.765625 226.046875 133.003906 220.933594 C 133.101562 220.785156 133.203125 220.632812 133.308594 220.472656 C 133.824219 219.699219 134.40625 218.828125 134.53125 217.886719 C 134.648438 216.996094 134.316406 216.09375 133.589844 215.355469 C 132.71875 214.464844 131.394531 213.941406 130.289062 214.054688 C 126.207031 214.46875 122.59375 217.644531 119.097656 220.714844 C 115.734375 223.671875 112.554688 226.460938 109.648438 226 C 109.339844 225.949219 109.050781 226.15625 109.003906 226.460938 C 108.953125 226.765625 109.164062 227.054688 109.46875 227.101562 C 109.675781 227.136719 109.882812 227.15625 110.089844 227.164062 C 113.308594 227.292969 116.488281 224.5 119.84375 221.550781 C 123.207031 218.597656 126.683594 215.546875 130.402344 215.164062 C 131.171875 215.085938 132.152344 215.484375 132.785156 216.132812 C 133.0625 216.417969 133.511719 217.003906 133.414062 217.742188 C 133.324219 218.425781 132.820312 219.183594 132.371094 219.851562 C 132.261719 220.019531 132.152344 220.183594 132.054688 220.339844 C 128.875 225.355469 124.917969 230.972656 119.660156 234.582031 C 110.074219 241.164062 100.769531 239.492188 91.21875 229.476562 C 87.976562 226.074219 84.96875 222.167969 82.277344 217.859375 C 82.128906 217.621094 81.894531 217.238281 81.605469 216.746094 C 83.988281 215 86.761719 213.316406 90.390625 211.394531 C 90.628906 211.269531 90.917969 211.089844 91.222656 210.902344 C 92.007812 210.421875 93.191406 209.691406 93.851562 209.71875 C 93.855469 209.71875 93.855469 209.71875 93.859375 209.71875 C 94.167969 209.730469 94.429688 209.492188 94.441406 209.183594 C 94.457031 208.875 94.214844 208.613281 93.90625 208.601562 C 93.902344 208.601562 93.898438 208.601562 93.898438 208.601562 C 92.890625 208.558594 91.636719 209.332031 90.628906 209.953125 C 90.339844 210.132812 90.070312 210.300781 89.863281 210.40625 C 86.230469 212.328125 83.441406 214.023438 81.03125 215.777344 C 78.9375 212.230469 75.210938 205.71875 74.332031 203.703125 C 74.242188 203.5 74.121094 203.277344 73.992188 203.039062 C 73.773438 202.644531 73.488281 202.125 73.433594 201.769531 C 74.023438 201.546875 76.386719 201.765625 77.765625 202.050781 C 78.300781 202.164062 78.851562 202.285156 79.378906 202.402344 C 80.128906 202.570312 80.898438 202.738281 81.667969 202.886719 C 81.972656 202.949219 82.265625 202.75 82.328125 202.445312 C 82.386719 202.144531 82.1875 201.851562 81.882812 201.792969 C 82.007812 201.523438 82.171875 201.207031 82.25 201.070312 C 83.058594 199.679688 83.945312 198.542969 84.957031 197.589844 C 87.765625 194.949219 91.667969 193.617188 95.945312 193.835938 C 98.757812 193.980469 101.042969 194.71875 102.738281 196.027344 C 103.5 196.617188 104.140625 197.332031 104.816406 198.089844 C 105.027344 198.328125 105.246094 198.566406 105.46875 198.808594 C 105.261719 199.09375 105.0625 199.382812 104.871094 199.683594 C 104.660156 200.011719 104.421875 200.382812 104.285156 200.8125 C 104.140625 201.246094 104.445312 201.464844 104.503906 201.503906 C 104.589844 201.558594 104.6875 201.585938 104.785156 201.589844 C 104.933594 201.597656 105.082031 201.546875 105.195312 201.441406 C 105.292969 201.351562 105.351562 201.234375 105.367188 201.113281 C 105.460938 200.839844 105.644531 200.558594 105.820312 200.285156 C 105.960938 200.058594 106.113281 199.839844 106.269531 199.617188 C 106.332031 199.679688 106.394531 199.742188 106.460938 199.800781 C 106.722656 200.039062 106.992188 200.242188 107.261719 200.429688 C 107.148438 200.542969 107.035156 200.652344 106.921875 200.757812 L 106.859375 200.824219 C 106.683594 200.992188 106.503906 201.167969 106.332031 201.355469 L 106.304688 201.386719 C 106.148438 201.550781 105.832031 201.894531 106.121094 202.277344 C 106.226562 202.417969 106.382812 202.496094 106.550781 202.503906 C 106.644531 202.507812 106.746094 202.488281 106.839844 202.441406 C 106.957031 202.382812 107.046875 202.289062 107.097656 202.179688 C 107.109375 202.167969 107.117188 202.15625 107.128906 202.148438 L 107.160156 202.109375 C 107.3125 201.945312 107.472656 201.789062 107.644531 201.621094 L 107.710938 201.558594 C 107.875 201.398438 108.046875 201.234375 108.222656 201.066406 C 108.4375 201.214844 108.648438 201.359375 108.839844 201.515625 C 108.714844 201.597656 108.589844 201.679688 108.460938 201.761719 C 108.421875 201.789062 108.304688 201.84375 108.21875 201.886719 C 107.832031 202.066406 107.4375 202.253906 107.429688 202.691406 C 107.429688 202.933594 107.566406 203.148438 107.796875 203.261719 C 107.871094 203.300781 107.949219 203.320312 108.027344 203.324219 C 108.242188 203.332031 108.453125 203.21875 108.554688 203.015625 C 108.5625 202.996094 108.574219 202.972656 108.582031 202.953125 C 108.625 202.929688 108.664062 202.910156 108.699219 202.894531 C 108.839844 202.828125 108.976562 202.765625 109.085938 202.695312 C 109.261719 202.578125 109.441406 202.460938 109.621094 202.34375 C 109.761719 202.554688 109.878906 202.792969 109.964844 203.066406 C 110.628906 205.128906 110.050781 207.738281 108.238281 210.816406 C 108.082031 211.082031 108.171875 211.425781 108.441406 211.582031 C 108.710938 211.738281 109.054688 211.648438 109.210938 211.378906 C 110.257812 209.597656 110.921875 207.941406 111.203125 206.425781 C 111.25 206.40625 111.296875 206.378906 111.339844 206.339844 C 111.449219 206.246094 111.605469 206.109375 111.78125 205.953125 C 112.164062 205.609375 112.6875 205.140625 112.941406 204.980469 C 114.089844 204.242188 115.324219 203.574219 116.617188 202.996094 C 120.753906 201.136719 124.796875 200.105469 128.632812 199.921875 C 131.09375 199.800781 137.25 199.921875 141.265625 203.554688 C 142.566406 204.734375 143.210938 206.398438 142.902344 207.796875 C 142.65625 208.933594 141.816406 209.753906 140.484375 210.179688 C 138.464844 210.820312 136.320312 209.890625 134.25 208.992188 C 133.359375 208.605469 132.4375 208.203125 131.546875 207.941406 C 127.535156 206.765625 122.914062 206.507812 118.539062 207.207031 C 118.234375 207.257812 118.023438 207.542969 118.074219 207.847656 C 118.125 208.152344 118.414062 208.359375 118.71875 208.3125 C 122.933594 207.636719 127.375 207.886719 131.230469 209.015625 C 132.054688 209.257812 132.902344 209.625 133.800781 210.015625 C 136.0625 210.996094 138.402344 212.011719 140.828125 211.242188 C 142.539062 210.699219 143.667969 209.5625 144.003906 208.035156 C 144.394531 206.253906 143.617188 204.171875 142.023438 202.726562 C 141.898438 202.613281 141.765625 202.5 141.636719 202.394531 C 141.972656 202.417969 142.308594 202.449219 142.644531 202.476562 C 148.058594 202.917969 153.660156 203.375 159.058594 202.808594 C 160.519531 202.65625 162.15625 202.332031 163.890625 201.992188 C 166.898438 201.398438 170.003906 200.785156 172.515625 200.996094 C 172.535156 200.996094 172.550781 200.996094 172.570312 200.996094 C 173.269531 201.503906 173.941406 202.082031 174.578125 202.75 C 174.910156 203.09375 175.183594 203.433594 175.40625 203.769531 C 175.316406 203.828125 175.242188 203.910156 175.195312 204.015625 C 173.988281 206.691406 170.988281 208.175781 168.578125 209.363281 C 167.425781 209.933594 166.429688 210.425781 165.816406 210.964844 C 165.082031 211.609375 164.53125 213.273438 164.46875 213.460938 C 164.449219 213.519531 164.441406 213.585938 164.441406 213.644531 C 164.21875 213.601562 164 213.546875 163.785156 213.484375 C 163.488281 213.398438 163.175781 213.566406 163.089844 213.863281 C 163 214.15625 163.171875 214.46875 163.46875 214.554688 C 165.660156 215.203125 168.269531 215.011719 170.816406 214.027344 C 173.273438 213.074219 175.324219 211.484375 176.445312 209.664062 C 178.035156 207.082031 177.664062 204.351562 175.394531 201.980469 C 172.371094 198.8125 168.738281 197.59375 164.890625 196.300781 C 163.6875 195.898438 162.445312 195.480469 161.214844 195 C 153.488281 191.96875 147.550781 184.4375 146.78125 176.6875 C 146.375 172.601562 147.957031 169.203125 151.359375 166.863281 C 154.058594 165.007812 160.578125 163.777344 163.703125 165.949219 C 165.132812 166.941406 165.570312 168.546875 165.003906 170.722656 C 164.808594 171.484375 163.054688 172.160156 161.359375 172.816406 C 158.640625 173.863281 155.261719 175.167969 154.328125 177.980469 C 153.710938 179.828125 154.21875 182 155.878906 184.625 C 159.035156 189.628906 164.488281 191.214844 169.761719 192.746094 C 175.992188 194.558594 181.878906 196.273438 183.878906 203.34375 C 185.394531 208.691406 182.316406 215.207031 177.015625 217.867188 C 176.535156 218.109375 176.023438 218.414062 175.484375 218.738281 C 173.445312 219.960938 170.90625 221.484375 166.832031 221.570312 Z M 90.726562 188.972656 C 90.957031 189.0625 91.421875 189.402344 91.582031 189.523438 C 91.703125 189.613281 91.796875 189.683594 91.875 189.730469 C 93.160156 190.539062 93.960938 191.394531 94.886719 192.382812 C 94.984375 192.484375 95.082031 192.589844 95.179688 192.695312 C 92.667969 192.671875 90.292969 193.164062 88.179688 194.117188 C 88.820312 192.386719 90.132812 189.429688 90.726562 188.972656 Z M 177.523438 218.863281 C 180.273438 217.484375 182.570312 215.125 183.984375 212.214844 C 185.441406 209.222656 185.792969 205.960938 184.964844 203.039062 C 182.792969 195.375 176.328125 193.492188 170.074219 191.675781 C 165.003906 190.199219 159.761719 188.671875 156.828125 184.027344 C 155.382812 181.738281 154.898438 179.820312 155.394531 178.332031 C 156.164062 176.023438 159.140625 174.871094 161.765625 173.859375 C 163.992188 172.996094 165.753906 172.316406 166.09375 171.003906 C 166.960938 167.671875 165.621094 165.917969 164.347656 165.03125 C 160.796875 162.566406 153.742188 163.867188 150.71875 165.945312 C 146.960938 168.527344 145.210938 172.28125 145.660156 176.796875 C 146.070312 180.890625 147.785156 184.921875 150.621094 188.453125 C 153.335938 191.835938 156.953125 194.527344 160.804688 196.039062 C 162.058594 196.53125 163.316406 196.953125 164.53125 197.363281 C 166.703125 198.089844 168.800781 198.792969 170.738281 199.847656 C 168.515625 199.9375 166.0625 200.421875 163.671875 200.894531 C 161.964844 201.230469 160.351562 201.550781 158.941406 201.699219 C 153.648438 202.253906 148.101562 201.800781 142.734375 201.359375 C 142.167969 201.3125 141.597656 201.265625 141.042969 201.222656 C 141.015625 201.21875 140.964844 201.210938 140.90625 201.199219 C 140.449219 201.125 140.105469 201.074219 139.847656 201.148438 C 135.75 198.777344 130.773438 198.699219 128.582031 198.804688 C 124.601562 198.996094 120.417969 200.0625 116.152344 201.976562 C 114.8125 202.578125 113.523438 203.273438 112.332031 204.039062 C 112.078125 204.199219 111.71875 204.511719 111.355469 204.828125 C 111.355469 204.089844 111.25 203.386719 111.035156 202.726562 C 110.914062 202.347656 110.753906 202.023438 110.566406 201.738281 L 110.808594 201.582031 C 112.179688 200.703125 113.695312 199.777344 115.433594 198.75 C 115.703125 198.59375 115.789062 198.25 115.632812 197.984375 C 115.472656 197.71875 115.128906 197.632812 114.859375 197.789062 C 113.109375 198.820312 111.582031 199.753906 110.199219 200.640625 L 109.828125 200.878906 C 109.585938 200.660156 109.324219 200.46875 109.0625 200.285156 C 109.113281 200.238281 109.160156 200.195312 109.210938 200.148438 C 110.78125 198.726562 112.253906 197.46875 113.714844 196.304688 C 113.957031 196.113281 113.996094 195.761719 113.800781 195.519531 C 113.609375 195.277344 113.253906 195.238281 113.011719 195.433594 C 111.53125 196.613281 110.039062 197.882812 108.453125 199.324219 C 108.332031 199.429688 108.214844 199.539062 108.097656 199.644531 C 107.796875 199.441406 107.492188 199.222656 107.21875 198.976562 C 107.121094 198.886719 107.027344 198.792969 106.933594 198.703125 C 106.9375 198.695312 106.941406 198.691406 106.949219 198.683594 L 107.015625 198.589844 C 108.320312 196.824219 109.730469 195.089844 111.089844 193.410156 L 111.152344 193.339844 C 111.347656 193.097656 111.308594 192.746094 111.066406 192.550781 C 110.824219 192.359375 110.472656 192.394531 110.277344 192.636719 L 110.21875 192.710938 C 108.855469 194.382812 107.453125 196.113281 106.140625 197.886719 C 105.980469 197.707031 105.820312 197.53125 105.65625 197.347656 C 104.976562 196.585938 104.273438 195.796875 103.425781 195.144531 C 101.71875 193.824219 99.5 193.03125 96.824219 192.777344 C 96.816406 192.769531 96.804688 192.757812 96.796875 192.75 C 96.40625 192.363281 96.050781 191.984375 95.710938 191.621094 C 94.773438 190.617188 93.886719 189.671875 92.472656 188.785156 C 92.433594 188.761719 92.34375 188.691406 92.253906 188.628906 C 91.519531 188.085938 90.917969 187.6875 90.386719 187.886719 C 89.988281 188.035156 89.382812 188.535156 88.226562 191.074219 C 87.589844 192.46875 87.035156 193.949219 86.878906 194.433594 C 86.839844 194.550781 86.839844 194.671875 86.878906 194.78125 C 85.90625 195.339844 85 196.007812 84.183594 196.777344 C 83.09375 197.804688 82.140625 199.027344 81.277344 200.507812 C 81.019531 200.953125 80.851562 201.292969 80.75 201.558594 C 80.375 201.476562 79.996094 201.394531 79.625 201.3125 C 79.089844 201.191406 78.539062 201.070312 77.992188 200.957031 C 77.949219 200.949219 73.730469 200.082031 72.652344 200.9375 C 72.429688 201.113281 72.304688 201.355469 72.296875 201.621094 C 72.285156 202.265625 72.667969 202.960938 73.003906 203.574219 C 73.121094 203.789062 73.230469 203.992188 73.300781 204.148438 C 74.199219 206.214844 78.027344 212.898438 80.125 216.453125 C 79.992188 216.554688 79.863281 216.65625 79.734375 216.753906 C 79.492188 216.945312 79.449219 217.296875 79.640625 217.539062 C 79.746094 217.675781 79.902344 217.746094 80.058594 217.753906 C 80.191406 217.757812 80.320312 217.71875 80.429688 217.632812 C 80.519531 217.566406 80.609375 217.496094 80.699219 217.425781 C 80.96875 217.875 81.179688 218.222656 81.320312 218.449219 C 84.050781 222.820312 87.109375 226.789062 90.402344 230.242188 C 95.007812 235.074219 99.699219 238.070312 104.347656 239.140625 C 104.574219 239.195312 104.804688 239.242188 105.03125 239.285156 C 105.074219 239.3125 105.121094 239.332031 105.167969 239.34375 C 106.144531 239.617188 107.492188 240.078125 108.683594 240.488281 C 109.238281 240.679688 109.765625 240.863281 110.214844 241.011719 C 113.394531 242.0625 116.828125 243.152344 120.351562 244.007812 C 125.113281 245.160156 129.886719 245.832031 134.570312 246.019531 C 140.355469 246.25 146 245.742188 151.308594 244.492188 C 155.175781 243.582031 158.820312 241.816406 162.34375 240.105469 C 163.8125 239.390625 165.335938 238.652344 166.835938 238 C 167.945312 237.511719 169.292969 237.074219 170.71875 236.609375 C 175.679688 234.992188 181.851562 232.976562 182.386719 227.304688 C 182.546875 225.617188 182.273438 224.433594 181.546875 223.683594 C 179.609375 221.695312 175.835938 221.664062 172.109375 221.703125 C 173.714844 221.105469 174.996094 220.339844 176.066406 219.695312 C 176.585938 219.382812 177.078125 219.089844 177.523438 218.863281 " fill-opacity="1" fill-rule="nonzero"/></g></g></g></g></g></g><g clip-path="url(#id7)"><g clip-path="url(#id8)"><g clip-path="url(#id9)"><g clip-path="url(#id10)"><path fill="#e6a8d2" d="M 91.148438 190.222656 C 90.597656 190.292969 89.871094 192.597656 90.402344 192.753906 C 91.011719 192.933594 93.585938 192.757812 93.710938 192.335938 C 93.835938 191.914062 91.703125 190.152344 91.148438 190.222656 Z M 76.664062 204.003906 C 76.300781 204.515625 78.027344 207.191406 78.738281 207.214844 C 79.445312 207.242188 81.261719 204.6875 80.917969 204.152344 C 80.574219 203.617188 77.027344 203.492188 76.664062 204.003906 Z M 99.804688 204.367188 C 99.566406 204.632812 98.078125 204.363281 98.0625 204.085938 C 98.046875 203.808594 99.257812 202.597656 99.710938 202.699219 C 100 202.765625 100.140625 203.992188 99.804688 204.367188 " fill-opacity="1" fill-rule="evenodd"/></g></g></g></g></svg>
